<svg width="145" height="144" viewBox="0 0 145 144" fill="none" xmlns="http://www.w3.org/2000/svg">
<g opacity="0.5" clip-path="url(#clip0_977_1648)">
<g filter="url(#filter0_b_977_1648)">
<path fill-rule="evenodd" clip-rule="evenodd" d="M106.62 47.5399C104.266 47.6851 102.401 49.6404 102.401 52.0312L102.401 88.0312C102.401 90.5165 100.386 92.5312 97.9011 92.5312H57.6824V92.5226C60.0366 92.3774 61.9011 90.4221 61.9011 88.0312H61.9011V52.0312H61.9011C61.9011 49.546 63.9158 47.5312 66.4011 47.5312H106.62V47.5399Z" fill="url(#paint0_linear_977_1648)"/>
</g>
<g opacity="0.5">
<g filter="url(#filter1_i_977_1648)">
<path fill-rule="evenodd" clip-rule="evenodd" d="M96.8762 114.545C96.5146 114.907 96.5146 115.493 96.8762 115.855L98.7486 117.727C99.1102 118.089 99.6966 118.089 100.058 117.727L103.522 114.264C103.883 113.902 104.47 113.902 104.831 114.264L108.295 117.727C108.656 118.089 109.242 118.089 109.604 117.727L111.476 115.855C111.838 115.493 111.838 114.907 111.476 114.545L108.013 111.082C107.652 110.72 107.652 110.134 108.013 109.772L111.477 106.309C111.838 105.947 111.838 105.361 111.477 104.999L109.604 103.127C109.243 102.765 108.656 102.765 108.295 103.127L104.831 106.59C104.47 106.952 103.883 106.952 103.522 106.59L100.058 103.127C99.6965 102.765 99.1102 102.765 98.7486 103.127L96.8762 104.999C96.5146 105.361 96.5146 105.947 96.8762 106.309L100.34 109.772C100.701 110.134 100.701 110.72 100.34 111.082L96.8762 114.545Z" fill="url(#paint1_linear_977_1648)"/>
</g>
<path d="M100.34 111.082L99.6848 110.427L100.34 111.082ZM100.058 103.127L99.4034 103.782L100.058 103.127ZM103.522 106.59L102.867 107.245L103.522 106.59ZM109.604 103.127L108.949 103.782L109.604 103.127ZM111.477 106.309L110.822 105.654L111.477 106.309ZM111.477 104.999L110.822 105.654L111.477 104.999ZM108.013 111.082L108.668 110.427L108.013 111.082ZM111.476 115.855L112.131 116.509L111.476 115.855ZM96.8762 115.855L96.2214 116.509L96.8762 115.855ZM98.7486 117.727L98.0938 118.382L98.7486 117.727ZM100.058 117.727L99.4034 117.072L100.058 117.727ZM99.4034 117.072L97.5311 115.2L96.2214 116.509L98.0938 118.382L99.4034 117.072ZM102.867 113.609L99.4034 117.072L100.713 118.382L104.176 114.918L102.867 113.609ZM108.949 117.072L105.486 113.609L104.176 114.918L107.64 118.382L108.949 117.072ZM110.822 115.2L108.949 117.072L110.259 118.382L112.131 116.509L110.822 115.2ZM107.358 111.736L110.822 115.2L112.131 113.89L108.668 110.427L107.358 111.736ZM110.822 105.654L107.358 109.117L108.668 110.427L112.131 106.963L110.822 105.654ZM108.949 103.782L110.822 105.654L112.131 104.344L110.259 102.472L108.949 103.782ZM105.486 107.245L108.949 103.782L107.64 102.472L104.176 105.935L105.486 107.245ZM99.4034 103.782L102.867 107.245L104.176 105.935L100.713 102.472L99.4034 103.782ZM97.531 105.654L99.4034 103.782L98.0938 102.472L96.2214 104.344L97.531 105.654ZM100.994 109.117L97.531 105.654L96.2214 106.963L99.6848 110.427L100.994 109.117ZM97.5311 115.2L100.994 111.736L99.6848 110.427L96.2214 113.89L97.5311 115.2ZM99.6848 110.427L99.6848 110.427L100.994 111.736C101.718 111.013 101.718 109.841 100.994 109.117L99.6848 110.427ZM96.2214 104.344C95.4981 105.068 95.4981 106.24 96.2214 106.963L97.531 105.654L97.531 105.654L96.2214 104.344ZM100.713 102.472C99.9897 101.749 98.817 101.749 98.0938 102.472L99.4034 103.782L100.713 102.472ZM104.176 105.935L102.867 107.245C103.59 107.968 104.763 107.968 105.486 107.245L104.176 105.935ZM110.259 102.472C109.536 101.749 108.363 101.749 107.64 102.472L108.949 103.782V103.782L110.259 102.472ZM112.131 106.963C112.855 106.24 112.855 105.068 112.131 104.344L110.822 105.654L112.131 106.963ZM108.668 110.427V110.427L107.358 109.117C106.635 109.841 106.635 111.013 107.358 111.736L108.668 110.427ZM112.131 116.509C112.855 115.786 112.855 114.613 112.131 113.89L110.822 115.2H110.822L112.131 116.509ZM107.64 118.382C108.363 119.105 109.536 119.105 110.259 118.382L108.949 117.072L107.64 118.382ZM104.176 114.918L104.176 114.918L105.486 113.609C104.763 112.886 103.59 112.886 102.867 113.609L104.176 114.918ZM97.5311 115.2L96.2214 113.89C95.4981 114.613 95.4981 115.786 96.2214 116.509L97.5311 115.2ZM98.0938 118.382C98.8171 119.105 99.9897 119.105 100.713 118.382L99.4034 117.072L99.4034 117.072L98.0938 118.382Z" fill="#DA2F38"/>
</g>
<g opacity="0.5">
<g filter="url(#filter2_i_977_1648)">
<path fill-rule="evenodd" clip-rule="evenodd" d="M86.1887 37.4825C85.8271 37.8441 85.8271 38.4305 86.1887 38.7921L88.0611 40.6645C88.4227 41.0261 89.0091 41.0261 89.3707 40.6645L92.834 37.2011C93.1957 36.8395 93.782 36.8395 94.1437 37.2011L97.607 40.6645C97.9687 41.0261 98.555 41.0261 98.9166 40.6645L100.789 38.7921C101.151 38.4305 101.151 37.8441 100.789 37.4825L97.3256 34.0192C96.964 33.6575 96.964 33.0712 97.3256 32.7095L100.789 29.2462C101.151 28.8845 101.151 28.2982 100.789 27.9366L98.9166 26.0642C98.555 25.7026 97.9687 25.7026 97.607 26.0642L94.1437 29.5275C93.782 29.8892 93.1957 29.8892 92.834 29.5275L89.3707 26.0642C89.0091 25.7026 88.4227 25.7026 88.0611 26.0642L86.1887 27.9366C85.8271 28.2982 85.8271 28.8845 86.1887 29.2462L89.6521 32.7095C90.0137 33.0712 90.0137 33.6575 89.6521 34.0192L86.1887 37.4825Z" fill="url(#paint2_linear_977_1648)"/>
</g>
<path d="M89.3707 26.0642L88.7159 26.719L89.3707 26.0642ZM92.834 29.5275L92.1792 30.1824L92.834 29.5275ZM98.9166 26.0642L98.2618 26.719L98.9166 26.0642ZM100.789 29.2462L101.444 29.901L100.789 29.2462ZM97.3256 34.0192L96.6708 34.674L97.3256 34.0192ZM97.3256 32.7095L97.9805 33.3643L97.3256 32.7095ZM100.789 38.7921L100.134 38.1373L100.789 38.7921ZM98.9166 40.6645L99.5714 41.3193L98.9166 40.6645ZM94.1437 37.2011L93.4889 37.8559L94.1437 37.2011ZM86.1887 38.7921L85.5339 39.4469L86.1887 38.7921ZM86.1887 37.4825L85.5339 36.8277L86.1887 37.4825ZM88.0611 40.6645L87.4063 41.3193L88.0611 40.6645ZM89.3707 40.6645L88.7159 40.0097L89.3707 40.6645ZM88.7159 40.0097L86.8435 38.1373L85.5339 39.4469L87.4063 41.3193L88.7159 40.0097ZM92.1792 36.5463L88.7159 40.0097L90.0255 41.3193L93.4889 37.8559L92.1792 36.5463ZM98.2618 40.0097L94.7985 36.5463L93.4889 37.8559L96.9522 41.3193L98.2618 40.0097ZM100.134 38.1373L98.2618 40.0097L99.5714 41.3193L101.444 39.4469L100.134 38.1373ZM96.6708 34.674L100.134 38.1373L101.444 36.8277L97.9805 33.3643L96.6708 34.674ZM100.134 28.5914L96.6708 32.0547L97.9805 33.3643L101.444 29.901L100.134 28.5914ZM98.2618 26.719L100.134 28.5914L101.444 27.2817L99.5714 25.4094L98.2618 26.719ZM94.7985 30.1824L98.2618 26.719L96.9522 25.4094L93.4888 28.8727L94.7985 30.1824ZM88.7159 26.719L92.1792 30.1824L93.4889 28.8727L90.0255 25.4094L88.7159 26.719ZM86.8435 28.5914L88.7159 26.719L87.4063 25.4094L85.5339 27.2817L86.8435 28.5914ZM90.3069 32.0547L86.8435 28.5914L85.5339 29.901L88.9972 33.3643L90.3069 32.0547ZM86.8435 38.1373L90.3069 34.674L88.9972 33.3643L85.5339 36.8277L86.8435 38.1373ZM88.9972 33.3643H88.9972L90.3069 34.674C91.0302 33.9507 91.0302 32.778 90.3069 32.0547L88.9972 33.3643ZM85.5339 27.2817C84.8106 28.005 84.8106 29.1777 85.5339 29.901L86.8435 28.5914L86.8435 28.5914L85.5339 27.2817ZM90.0255 25.4094C89.3022 24.6861 88.1295 24.6861 87.4063 25.4094L88.7159 26.719L90.0255 25.4094ZM93.4888 28.8727L93.4889 28.8727L92.1792 30.1824C92.9025 30.9056 94.0752 30.9056 94.7985 30.1824L93.4888 28.8727ZM99.5714 25.4094C98.8482 24.6861 97.6755 24.6861 96.9522 25.4094L98.2618 26.719L99.5714 25.4094ZM101.444 29.901C102.167 29.1777 102.167 28.005 101.444 27.2817L100.134 28.5914L101.444 29.901ZM97.9805 33.3643V33.3643L96.6708 32.0547C95.9475 32.778 95.9475 33.9507 96.6708 34.674L97.9805 33.3643ZM101.444 39.4469C102.167 38.7237 102.167 37.551 101.444 36.8277L100.134 38.1373L101.444 39.4469ZM96.9522 41.3193C97.6755 42.0426 98.8482 42.0426 99.5714 41.3193L98.2618 40.0097L96.9522 41.3193ZM93.4889 37.8559L94.7985 36.5463C94.0752 35.823 92.9025 35.823 92.1792 36.5463L93.4889 37.8559ZM86.8435 38.1373L85.5339 36.8277C84.8106 37.551 84.8106 38.7237 85.5339 39.4469L86.8435 38.1373ZM87.4063 41.3193C88.1295 42.0426 89.3022 42.0426 90.0255 41.3193L88.7159 40.0097H88.7159L87.4063 41.3193Z" fill="#DA2F38"/>
</g>
<g filter="url(#filter3_b_977_1648)">
<path fill-rule="evenodd" clip-rule="evenodd" d="M111.401 58.7812H70.9011V52.0312C70.9011 49.6404 69.0366 47.6851 66.6824 47.5399V47.5312H106.901C109.386 47.5312 111.401 49.546 111.401 52.0312V58.7812Z" fill="url(#paint3_linear_977_1648)"/>
</g>
<g filter="url(#filter4_b_977_1648)">
<path fill-rule="evenodd" clip-rule="evenodd" d="M67.5261 54.2812C66.9048 54.2812 66.4011 54.7849 66.4011 55.4062C66.4011 56.0276 66.9048 56.5312 67.5261 56.5312H96.7761C97.3974 56.5312 97.9011 56.0276 97.9011 55.4062C97.9011 54.7849 97.3974 54.2812 96.7761 54.2812H67.5261ZM67.5262 58.7812C66.9048 58.7812 66.4012 59.2849 66.4012 59.9062C66.4012 60.5276 66.9048 61.0312 67.5262 61.0312H96.7762C97.3975 61.0312 97.9012 60.5276 97.9012 59.9062C97.9012 59.2849 97.3975 58.7812 96.7762 58.7812H67.5262ZM66.4012 64.4062C66.4012 63.7849 66.9048 63.2812 67.5262 63.2812H96.7762C97.3975 63.2812 97.9012 63.7849 97.9012 64.4062C97.9012 65.0276 97.3975 65.5312 96.7762 65.5312H67.5262C66.9048 65.5312 66.4012 65.0276 66.4012 64.4062ZM67.5262 67.7812C66.9048 67.7812 66.4012 68.2849 66.4012 68.9062C66.4012 69.5276 66.9048 70.0312 67.5262 70.0312H96.7762C97.3975 70.0312 97.9012 69.5276 97.9012 68.9062C97.9012 68.2849 97.3975 67.7812 96.7762 67.7812H67.5262ZM66.4012 73.4062C66.4012 72.7849 66.9048 72.2812 67.5262 72.2812H96.7762C97.3975 72.2812 97.9012 72.7849 97.9012 73.4062C97.9012 74.0276 97.3975 74.5312 96.7762 74.5312H67.5262C66.9048 74.5312 66.4012 74.0276 66.4012 73.4062ZM67.5262 76.7812C66.9048 76.7812 66.4012 77.2849 66.4012 77.9062C66.4012 78.5276 66.9048 79.0312 67.5262 79.0312H96.7762C97.3975 79.0312 97.9012 78.5276 97.9012 77.9062C97.9012 77.2849 97.3975 76.7812 96.7762 76.7812H67.5262ZM66.4012 82.4062C66.4012 81.7849 66.9048 81.2812 67.5262 81.2812H96.7762C97.3975 81.2812 97.9012 81.7849 97.9012 82.4062C97.9012 83.0276 97.3975 83.5312 96.7762 83.5312H67.5262C66.9048 83.5312 66.4012 83.0276 66.4012 82.4062ZM67.5262 85.7812C66.9048 85.7812 66.4012 86.2849 66.4012 86.9062C66.4012 87.5276 66.9048 88.0312 67.5262 88.0312H96.7762C97.3975 88.0312 97.9012 87.5276 97.9012 86.9062C97.9012 86.2849 97.3975 85.7812 96.7762 85.7812H67.5262Z" fill="#E6FFEE"/>
</g>
<g filter="url(#filter5_b_977_1648)">
<path fill-rule="evenodd" clip-rule="evenodd" d="M97.6199 92.5268C97.6199 92.5244 97.618 92.5225 97.6157 92.5223C95.2634 92.3751 93.4011 90.4207 93.4011 88.0312L93.4011 70.0312C93.4011 67.546 91.3864 65.5312 88.9011 65.5312H48.6868C48.6844 65.5312 48.6824 65.5332 48.6824 65.5357C48.6824 65.5381 48.6842 65.54 48.6866 65.5402C51.0389 65.6874 52.9011 67.6418 52.9011 70.0312L52.9011 88.0312C52.9011 90.5165 54.9158 92.5312 57.4011 92.5312H97.6154C97.6179 92.5312 97.6199 92.5293 97.6199 92.5268Z" fill="url(#paint4_linear_977_1648)"/>
</g>
<g filter="url(#filter6_b_977_1648)">
<path fill-rule="evenodd" clip-rule="evenodd" d="M88.6198 65.5399C86.2656 65.6851 84.4011 67.6404 84.4011 70.0312L84.4011 106.031C84.4011 108.517 82.3864 110.531 79.9011 110.531H39.6824V110.523C42.0366 110.377 43.9011 108.422 43.9011 106.031H43.9011V70.0312H43.9011C43.9011 67.546 45.9158 65.5312 48.4011 65.5312H88.6198V65.5399Z" fill="url(#paint5_linear_977_1648)"/>
</g>
<g filter="url(#filter7_b_977_1648)">
<path fill-rule="evenodd" clip-rule="evenodd" d="M48.4011 73.4062C48.4011 72.7849 48.9048 72.2812 49.5261 72.2812H59.9324C60.5537 72.2812 61.0574 72.7849 61.0574 73.4062C61.0574 74.0276 60.5537 74.5312 59.9324 74.5312H49.5261C48.9048 74.5312 48.4011 74.0276 48.4011 73.4062ZM63.3074 73.4062C63.3074 72.7849 63.8111 72.2812 64.4324 72.2812H78.7761C79.3974 72.2812 79.9011 72.7849 79.9011 73.4062C79.9011 74.0276 79.3974 74.5312 78.7761 74.5312H64.4324C63.8111 74.5312 63.3074 74.0276 63.3074 73.4062ZM49.8074 76.7812C49.1861 76.7812 48.6824 77.2849 48.6824 77.9062C48.6824 78.5276 49.1861 79.0312 49.8074 79.0312H70.9011C71.5224 79.0312 72.0261 78.5276 72.0261 77.9062C72.0261 77.2849 71.5224 76.7812 70.9011 76.7812H49.8074ZM74.2761 77.9062C74.2761 77.2849 74.7798 76.7812 75.4011 76.7812H78.7761C79.3974 76.7812 79.9011 77.2849 79.9011 77.9062C79.9011 78.5276 79.3974 79.0312 78.7761 79.0312H75.4011C74.7798 79.0312 74.2761 78.5276 74.2761 77.9062ZM49.5262 81.2812C48.9048 81.2812 48.4012 81.7849 48.4012 82.4062C48.4012 83.0276 48.9048 83.5312 49.5262 83.5312H64.4324C65.0537 83.5312 65.5574 83.0276 65.5574 82.4062C65.5574 81.7849 65.0537 81.2812 64.4324 81.2812H49.5262ZM67.8074 82.4062C67.8074 81.7849 68.3111 81.2812 68.9324 81.2812H78.7761C79.3974 81.2812 79.9011 81.7849 79.9011 82.4062C79.9011 83.0276 79.3974 83.5312 78.7761 83.5312H68.9324C68.3111 83.5312 67.8074 83.0276 67.8074 82.4062ZM49.5262 85.7812C48.9048 85.7812 48.4012 86.2849 48.4012 86.9062C48.4012 87.5276 48.9048 88.0312 49.5262 88.0312H78.7762C79.3975 88.0312 79.9012 87.5276 79.9012 86.9062C79.9012 86.2849 79.3975 85.7812 78.7762 85.7812H49.5262ZM48.4012 91.4062C48.4012 90.7849 48.9048 90.2812 49.5262 90.2812H78.7762C79.3975 90.2812 79.9012 90.7849 79.9012 91.4062C79.9012 92.0276 79.3975 92.5312 78.7762 92.5312H49.5262C48.9048 92.5312 48.4012 92.0276 48.4012 91.4062ZM49.5262 94.7812C48.9048 94.7812 48.4012 95.2849 48.4012 95.9062C48.4012 96.5276 48.9048 97.0312 49.5262 97.0312H78.7762C79.3975 97.0312 79.9012 96.5276 79.9012 95.9062C79.9012 95.2849 79.3975 94.7812 78.7762 94.7812H49.5262ZM48.4012 100.406C48.4012 99.7849 48.9048 99.2812 49.5262 99.2812H59.3699C59.9912 99.2812 60.4949 99.7849 60.4949 100.406C60.4949 101.028 59.9912 101.531 59.3699 101.531H49.5262C48.9048 101.531 48.4012 101.028 48.4012 100.406ZM72.0261 99.2812C71.4048 99.2812 70.9011 99.7849 70.9011 100.406C70.9011 101.028 71.4048 101.531 72.0261 101.531H78.7761C79.3974 101.531 79.9011 101.028 79.9011 100.406C79.9011 99.7849 79.3974 99.2812 78.7761 99.2812H72.0261ZM48.4012 104.906C48.4012 104.285 48.9048 103.781 49.5262 103.781H59.3699C59.9912 103.781 60.4949 104.285 60.4949 104.906C60.4949 105.528 59.9912 106.031 59.3699 106.031H49.5262C48.9048 106.031 48.4012 105.528 48.4012 104.906ZM72.0261 103.781C71.4048 103.781 70.9011 104.285 70.9011 104.906C70.9011 105.528 71.4048 106.031 72.0261 106.031H78.7761C79.3974 106.031 79.9011 105.528 79.9011 104.906C79.9011 104.285 79.3974 103.781 78.7761 103.781H72.0261Z" fill="#E6FFEE"/>
</g>
<g filter="url(#filter8_b_977_1648)">
<path fill-rule="evenodd" clip-rule="evenodd" d="M34.9011 99.2812H75.4011V106.031H75.4012C75.4012 108.422 77.2656 110.377 79.6199 110.523V110.531H39.4011C36.9158 110.531 34.9011 108.517 34.9011 106.031V99.2812Z" fill="url(#paint6_linear_977_1648)"/>
</g>
<g filter="url(#filter9_b_977_1648)">
<path d="M48.6824 65.5399V65.5312H61.9011M66.6824 47.5399V47.5312H106.901C109.386 47.5312 111.401 49.546 111.401 52.0312V58.7812H102.401M97.9011 92.5312C100.386 92.5312 102.401 90.5165 102.401 88.0312L102.401 58.7812M39.6824 110.523V110.531H79.9011C82.3864 110.531 84.4011 108.517 84.4011 106.031L84.4011 92.5312M43.9011 99.2812H75.4011V106.031C75.4011 108.422 77.2656 110.377 79.6199 110.523V110.531H39.4011C36.9158 110.531 34.9011 108.517 34.9011 106.031V99.2812H43.9011ZM43.9011 99.2812L43.9011 70.0312C43.9011 67.546 45.9158 65.5312 48.4011 65.5312H61.9011M84.4011 92.5312L84.4011 70.0312C84.4011 67.6404 86.2656 65.6851 88.6199 65.5399V65.5312H61.9011M84.4011 92.5312H97.6199V92.5226C95.2656 92.3774 93.4011 90.4221 93.4011 88.0312L93.4011 70.0312C93.4011 67.546 91.3864 65.5312 88.9011 65.5312H61.9011M61.9011 65.5312V52.0312C61.9011 49.546 63.9158 47.5312 66.4011 47.5312H106.62V47.5399C104.266 47.6851 102.401 49.6404 102.401 52.0312V58.7812" stroke="#046422" stroke-width="1.85209" stroke-linecap="round" stroke-linejoin="round"/>
</g>
<g filter="url(#filter10_bi_977_1648)">
<path fill-rule="evenodd" clip-rule="evenodd" d="M53.2293 54.2732C53.9525 53.55 53.9525 52.3773 53.2293 51.654L49.4846 47.9093C48.7613 47.186 47.5886 47.186 46.8653 47.9093L39.9387 54.8359C39.2154 55.5592 38.0427 55.5592 37.3194 54.8359L30.3926 47.9092C29.6694 47.1859 28.4967 47.1859 27.7734 47.9092L24.0287 51.6539C23.3054 52.3772 23.3054 53.5498 24.0287 54.2731L30.9554 61.1999C31.6787 61.9232 31.6787 63.0958 30.9554 63.8191L24.0287 70.7459C23.3054 71.4692 23.3054 72.6418 24.0287 73.3651L27.7734 77.1098C28.4967 77.8331 29.6694 77.8331 30.3927 77.1098L37.3194 70.1831C38.0427 69.4598 39.2154 69.4598 39.9387 70.1831L46.8653 77.1097C47.5886 77.833 48.7612 77.833 49.4845 77.1097L53.2292 73.365C53.9525 72.6417 53.9525 71.469 53.2292 70.7458L46.3026 63.8191C45.5793 63.0958 45.5793 61.9232 46.3026 61.1999L53.2293 54.2732Z" fill="url(#paint7_linear_977_1648)"/>
</g>
<g filter="url(#filter11_bi_977_1648)">
<path fill-rule="evenodd" clip-rule="evenodd" d="M53.2293 54.2732C53.9525 53.55 53.9525 52.3773 53.2293 51.654L49.4846 47.9093C48.7613 47.186 47.5886 47.186 46.8653 47.9093L39.9387 54.8359C39.2154 55.5592 38.0427 55.5592 37.3194 54.8359L30.3926 47.9092C29.6694 47.1859 28.4967 47.1859 27.7734 47.9092L24.0287 51.6539C23.3054 52.3772 23.3054 53.5498 24.0287 54.2731L30.9554 61.1999C31.6787 61.9232 31.6787 63.0958 30.9554 63.8191L24.0287 70.7459C23.3054 71.4692 23.3054 72.6418 24.0287 73.3651L27.7734 77.1098C28.4967 77.8331 29.6694 77.8331 30.3927 77.1098L37.3194 70.1831C38.0427 69.4598 39.2154 69.4598 39.9387 70.1831L46.8653 77.1097C47.5886 77.833 48.7612 77.833 49.4845 77.1097L53.2292 73.365C53.9525 72.6417 53.9525 71.469 53.2292 70.7458L46.3026 63.8191C45.5793 63.0958 45.5793 61.9232 46.3026 61.1999L53.2293 54.2732Z" fill="url(#paint8_linear_977_1648)"/>
<path d="M46.3026 61.1999L45.6478 60.5451L46.3026 61.1999ZM53.2292 70.7458L53.8841 70.0909L53.2292 70.7458ZM46.8653 77.1097L47.5201 76.4549L46.8653 77.1097ZM37.3194 70.1831L36.6646 69.5283L37.3194 70.1831ZM39.9387 70.1831L40.5935 69.5283L39.9387 70.1831ZM27.7734 77.1098L27.1186 77.7646L27.7734 77.1098ZM30.3927 77.1098L31.0475 77.7646L30.3927 77.1098ZM24.0287 70.7459L23.3739 70.0911L24.0287 70.7459ZM30.9554 61.1999L30.3006 61.8547L30.9554 61.1999ZM30.9554 63.8191L30.3006 63.1643L30.9554 63.8191ZM24.0287 51.6539L23.3739 50.9991L24.0287 51.6539ZM30.3926 47.9092L31.0475 47.2543L30.3926 47.9092ZM39.9387 54.8359L39.2838 54.1811L39.9387 54.8359ZM48.8297 48.5641L52.5745 52.3088L53.8841 50.9992L50.1394 47.2545L48.8297 48.5641ZM40.5935 55.4907L47.5201 48.5641L46.2105 47.2545L39.2838 54.1811L40.5935 55.4907ZM29.7378 48.564L36.6646 55.4907L37.9742 54.1811L31.0475 47.2543L29.7378 48.564ZM24.6835 52.3087L28.4282 48.564L27.1186 47.2544L23.3739 50.9991L24.6835 52.3087ZM31.6103 60.5451L24.6835 53.6183L23.3739 54.9279L30.3006 61.8547L31.6103 60.5451ZM24.6835 71.4007L31.6103 64.4739L30.3006 63.1643L23.3739 70.0911L24.6835 71.4007ZM28.4282 76.455L24.6835 72.7103L23.3739 74.0199L27.1186 77.7646L28.4282 76.455ZM36.6646 69.5283L29.7379 76.455L31.0475 77.7646L37.9742 70.8379L36.6646 69.5283ZM47.5201 76.4549L40.5935 69.5283L39.2838 70.8379L46.2105 77.7645L47.5201 76.4549ZM52.5744 72.7102L48.8297 76.4549L50.1393 77.7645L53.8841 74.0198L52.5744 72.7102ZM45.6478 64.4739L52.5744 71.4006L53.8841 70.0909L46.9574 63.1643L45.6478 64.4739ZM52.5745 53.6184L45.6478 60.5451L46.9574 61.8547L53.8841 54.9281L52.5745 53.6184ZM46.9574 63.1643C46.5958 62.8027 46.5958 62.2163 46.9574 61.8547L45.6478 60.5451C44.5629 61.63 44.5629 63.389 45.6478 64.4739L46.9574 63.1643ZM53.8841 74.0198C54.969 72.9349 54.969 71.1759 53.8841 70.0909L52.5744 71.4006C52.9361 71.7622 52.9361 72.3485 52.5744 72.7102L53.8841 74.0198ZM46.2105 77.7645C47.2954 78.8495 49.0544 78.8495 50.1393 77.7645L48.8297 76.4549C48.4681 76.8165 47.8817 76.8165 47.5201 76.4549L46.2105 77.7645ZM37.9742 70.8379C38.3359 70.4763 38.9222 70.4763 39.2838 70.8379L40.5935 69.5283C39.5085 68.4434 37.7495 68.4434 36.6646 69.5283L37.9742 70.8379ZM27.1186 77.7646C28.2035 78.8496 29.9626 78.8496 31.0475 77.7646L29.7379 76.455C29.3762 76.8167 28.7899 76.8167 28.4282 76.455L27.1186 77.7646ZM23.3739 70.0911C22.289 71.176 22.289 72.935 23.3739 74.0199L24.6835 72.7103C24.3219 72.3487 24.3219 71.7623 24.6835 71.4007L23.3739 70.0911ZM30.3006 61.8547C30.6623 62.2163 30.6623 62.8027 30.3006 63.1643L31.6103 64.4739C32.6952 63.389 32.6952 61.63 31.6103 60.5451L30.3006 61.8547ZM23.3739 50.9991C22.2889 52.084 22.2889 53.843 23.3739 54.9279L24.6835 53.6183C24.3219 53.2567 24.3219 52.6703 24.6835 52.3087L23.3739 50.9991ZM31.0475 47.2543C29.9625 46.1694 28.2035 46.1694 27.1186 47.2544L28.4282 48.564C28.7899 48.2023 29.3762 48.2023 29.7378 48.564L31.0475 47.2543ZM39.2838 54.1811C38.9222 54.5428 38.3359 54.5428 37.9742 54.1811L36.6646 55.4907C37.7495 56.5757 39.5085 56.5757 40.5935 55.4907L39.2838 54.1811ZM52.5745 52.3088C52.9361 52.6704 52.9361 53.2568 52.5745 53.6184L53.8841 54.9281C54.969 53.8431 54.969 52.0841 53.8841 50.9992L52.5745 52.3088ZM50.1394 47.2545C49.0544 46.1695 47.2954 46.1695 46.2105 47.2545L47.5201 48.5641C47.8818 48.2024 48.4681 48.2024 48.8297 48.5641L50.1394 47.2545Z" fill="#DA2F38"/>
</g>
<g style="mix-blend-mode:color">
<rect x="0.5" width="144" height="144" fill="white"/>
</g>
</g>
<defs>
<filter id="filter0_b_977_1648" x="55.4324" y="45.2812" width="53.4375" height="49.5" filterUnits="userSpaceOnUse" color-interpolation-filters="sRGB">
<feFlood flood-opacity="0" result="BackgroundImageFix"/>
<feGaussianBlur in="BackgroundImageFix" stdDeviation="1.125"/>
<feComposite in2="SourceAlpha" operator="in" result="effect1_backgroundBlur_977_1648"/>
<feBlend mode="normal" in="SourceGraphic" in2="effect1_backgroundBlur_977_1648" result="shape"/>
</filter>
<filter id="filter1_i_977_1648" x="95.679" y="101.929" width="17.5574" height="17.5574" filterUnits="userSpaceOnUse" color-interpolation-filters="sRGB">
<feFlood flood-opacity="0" result="BackgroundImageFix"/>
<feBlend mode="normal" in="SourceGraphic" in2="BackgroundImageFix" result="shape"/>
<feColorMatrix in="SourceAlpha" type="matrix" values="0 0 0 0 0 0 0 0 0 0 0 0 0 0 0 0 0 0 127 0" result="hardAlpha"/>
<feOffset dx="0.5625" dy="0.5625"/>
<feGaussianBlur stdDeviation="1.125"/>
<feComposite in2="hardAlpha" operator="arithmetic" k2="-1" k3="1"/>
<feColorMatrix type="matrix" values="0 0 0 0 1 0 0 0 0 1 0 0 0 0 1 0 0 0 0.5 0"/>
<feBlend mode="normal" in2="shape" result="effect1_innerShadow_977_1648"/>
</filter>
<filter id="filter2_i_977_1648" x="84.9915" y="24.8669" width="17.5574" height="17.5574" filterUnits="userSpaceOnUse" color-interpolation-filters="sRGB">
<feFlood flood-opacity="0" result="BackgroundImageFix"/>
<feBlend mode="normal" in="SourceGraphic" in2="BackgroundImageFix" result="shape"/>
<feColorMatrix in="SourceAlpha" type="matrix" values="0 0 0 0 0 0 0 0 0 0 0 0 0 0 0 0 0 0 127 0" result="hardAlpha"/>
<feOffset dx="0.5625" dy="0.5625"/>
<feGaussianBlur stdDeviation="1.125"/>
<feComposite in2="hardAlpha" operator="arithmetic" k2="-1" k3="1"/>
<feColorMatrix type="matrix" values="0 0 0 0 1 0 0 0 0 1 0 0 0 0 1 0 0 0 0.5 0"/>
<feBlend mode="normal" in2="shape" result="effect1_innerShadow_977_1648"/>
</filter>
<filter id="filter3_b_977_1648" x="64.4324" y="45.2812" width="49.2188" height="15.75" filterUnits="userSpaceOnUse" color-interpolation-filters="sRGB">
<feFlood flood-opacity="0" result="BackgroundImageFix"/>
<feGaussianBlur in="BackgroundImageFix" stdDeviation="1.125"/>
<feComposite in2="SourceAlpha" operator="in" result="effect1_backgroundBlur_977_1648"/>
<feBlend mode="normal" in="SourceGraphic" in2="effect1_backgroundBlur_977_1648" result="shape"/>
</filter>
<filter id="filter4_b_977_1648" x="61.9011" y="49.7812" width="40.5" height="42.75" filterUnits="userSpaceOnUse" color-interpolation-filters="sRGB">
<feFlood flood-opacity="0" result="BackgroundImageFix"/>
<feGaussianBlur in="BackgroundImageFix" stdDeviation="2.25"/>
<feComposite in2="SourceAlpha" operator="in" result="effect1_backgroundBlur_977_1648"/>
<feBlend mode="normal" in="SourceGraphic" in2="effect1_backgroundBlur_977_1648" result="shape"/>
</filter>
<filter id="filter5_b_977_1648" x="46.4324" y="63.2812" width="53.4375" height="31.5" filterUnits="userSpaceOnUse" color-interpolation-filters="sRGB">
<feFlood flood-opacity="0" result="BackgroundImageFix"/>
<feGaussianBlur in="BackgroundImageFix" stdDeviation="1.125"/>
<feComposite in2="SourceAlpha" operator="in" result="effect1_backgroundBlur_977_1648"/>
<feBlend mode="normal" in="SourceGraphic" in2="effect1_backgroundBlur_977_1648" result="shape"/>
</filter>
<filter id="filter6_b_977_1648" x="37.4324" y="63.2812" width="53.4375" height="49.5" filterUnits="userSpaceOnUse" color-interpolation-filters="sRGB">
<feFlood flood-opacity="0" result="BackgroundImageFix"/>
<feGaussianBlur in="BackgroundImageFix" stdDeviation="1.125"/>
<feComposite in2="SourceAlpha" operator="in" result="effect1_backgroundBlur_977_1648"/>
<feBlend mode="normal" in="SourceGraphic" in2="effect1_backgroundBlur_977_1648" result="shape"/>
</filter>
<filter id="filter7_b_977_1648" x="43.9011" y="67.7812" width="40.5" height="42.75" filterUnits="userSpaceOnUse" color-interpolation-filters="sRGB">
<feFlood flood-opacity="0" result="BackgroundImageFix"/>
<feGaussianBlur in="BackgroundImageFix" stdDeviation="2.25"/>
<feComposite in2="SourceAlpha" operator="in" result="effect1_backgroundBlur_977_1648"/>
<feBlend mode="normal" in="SourceGraphic" in2="effect1_backgroundBlur_977_1648" result="shape"/>
</filter>
<filter id="filter8_b_977_1648" x="32.6511" y="97.0312" width="49.2188" height="15.75" filterUnits="userSpaceOnUse" color-interpolation-filters="sRGB">
<feFlood flood-opacity="0" result="BackgroundImageFix"/>
<feGaussianBlur in="BackgroundImageFix" stdDeviation="1.125"/>
<feComposite in2="SourceAlpha" operator="in" result="effect1_backgroundBlur_977_1648"/>
<feBlend mode="normal" in="SourceGraphic" in2="effect1_backgroundBlur_977_1648" result="shape"/>
</filter>
<filter id="filter9_b_977_1648" x="31.7251" y="44.3552" width="82.8521" height="69.3521" filterUnits="userSpaceOnUse" color-interpolation-filters="sRGB">
<feFlood flood-opacity="0" result="BackgroundImageFix"/>
<feGaussianBlur in="BackgroundImageFix" stdDeviation="1.125"/>
<feComposite in2="SourceAlpha" operator="in" result="effect1_backgroundBlur_977_1648"/>
<feBlend mode="normal" in="SourceGraphic" in2="effect1_backgroundBlur_977_1648" result="shape"/>
</filter>
<filter id="filter10_bi_977_1648" x="19.7821" y="43.6625" width="37.6938" height="37.694" filterUnits="userSpaceOnUse" color-interpolation-filters="sRGB">
<feFlood flood-opacity="0" result="BackgroundImageFix"/>
<feGaussianBlur in="BackgroundImageFix" stdDeviation="1.85209"/>
<feComposite in2="SourceAlpha" operator="in" result="effect1_backgroundBlur_977_1648"/>
<feBlend mode="normal" in="SourceGraphic" in2="effect1_backgroundBlur_977_1648" result="shape"/>
<feColorMatrix in="SourceAlpha" type="matrix" values="0 0 0 0 0 0 0 0 0 0 0 0 0 0 0 0 0 0 127 0" result="hardAlpha"/>
<feOffset dx="0.5625" dy="0.5625"/>
<feGaussianBlur stdDeviation="1.125"/>
<feComposite in2="hardAlpha" operator="arithmetic" k2="-1" k3="1"/>
<feColorMatrix type="matrix" values="0 0 0 0 1 0 0 0 0 1 0 0 0 0 1 0 0 0 0.5 0"/>
<feBlend mode="normal" in2="shape" result="effect2_innerShadow_977_1648"/>
</filter>
<filter id="filter11_bi_977_1648" x="18.8559" y="42.7365" width="39.5461" height="39.5461" filterUnits="userSpaceOnUse" color-interpolation-filters="sRGB">
<feFlood flood-opacity="0" result="BackgroundImageFix"/>
<feGaussianBlur in="BackgroundImageFix" stdDeviation="1.85209"/>
<feComposite in2="SourceAlpha" operator="in" result="effect1_backgroundBlur_977_1648"/>
<feBlend mode="normal" in="SourceGraphic" in2="effect1_backgroundBlur_977_1648" result="shape"/>
<feColorMatrix in="SourceAlpha" type="matrix" values="0 0 0 0 0 0 0 0 0 0 0 0 0 0 0 0 0 0 127 0" result="hardAlpha"/>
<feOffset dx="0.5625" dy="0.5625"/>
<feGaussianBlur stdDeviation="1.125"/>
<feComposite in2="hardAlpha" operator="arithmetic" k2="-1" k3="1"/>
<feColorMatrix type="matrix" values="0 0 0 0 1 0 0 0 0 1 0 0 0 0 1 0 0 0 0.5 0"/>
<feBlend mode="normal" in2="shape" result="effect2_innerShadow_977_1648"/>
</filter>
<linearGradient id="paint0_linear_977_1648" x1="82.1511" y1="47.5312" x2="82.1511" y2="92.5312" gradientUnits="userSpaceOnUse">
<stop stop-color="#17AD49"/>
<stop offset="1" stop-color="#17AD49" stop-opacity="0.32"/>
</linearGradient>
<linearGradient id="paint1_linear_977_1648" x1="96.605" y1="102.855" x2="111.814" y2="102.923" gradientUnits="userSpaceOnUse">
<stop stop-color="#FFA54D"/>
<stop offset="1" stop-color="#FC353F"/>
</linearGradient>
<linearGradient id="paint2_linear_977_1648" x1="85.9175" y1="25.793" x2="101.127" y2="25.86" gradientUnits="userSpaceOnUse">
<stop stop-color="#FFA54D"/>
<stop offset="1" stop-color="#FC353F"/>
</linearGradient>
<linearGradient id="paint3_linear_977_1648" x1="89.0417" y1="58.7812" x2="89.0417" y2="47.5312" gradientUnits="userSpaceOnUse">
<stop stop-color="#009030" stop-opacity="0.5"/>
<stop offset="1" stop-color="#009030"/>
</linearGradient>
<linearGradient id="paint4_linear_977_1648" x1="73.1511" y1="92.5312" x2="73.1511" y2="65.5312" gradientUnits="userSpaceOnUse">
<stop stop-color="#009030"/>
<stop offset="0.472221" stop-color="#009030" stop-opacity="0.5"/>
<stop offset="1" stop-color="#009030"/>
</linearGradient>
<linearGradient id="paint5_linear_977_1648" x1="64.1511" y1="65.5312" x2="64.1511" y2="110.531" gradientUnits="userSpaceOnUse">
<stop stop-color="#17AD49"/>
<stop offset="1" stop-color="#17AD49" stop-opacity="0.32"/>
</linearGradient>
<linearGradient id="paint6_linear_977_1648" x1="57.2605" y1="99.2812" x2="57.2605" y2="110.531" gradientUnits="userSpaceOnUse">
<stop stop-color="#009030" stop-opacity="0.5"/>
<stop offset="1" stop-color="#009030"/>
</linearGradient>
<linearGradient id="paint7_linear_977_1648" x1="53.7717" y1="47.3667" x2="53.6376" y2="77.7853" gradientUnits="userSpaceOnUse">
<stop stop-color="#FFA54D"/>
<stop offset="1" stop-color="#FC353F"/>
</linearGradient>
<linearGradient id="paint8_linear_977_1648" x1="53.7717" y1="47.3667" x2="53.6376" y2="77.7853" gradientUnits="userSpaceOnUse">
<stop stop-color="#FFA54D"/>
<stop offset="1" stop-color="#FC353F"/>
</linearGradient>
<clipPath id="clip0_977_1648">
<rect width="144" height="144" fill="white" transform="translate(0.5)"/>
</clipPath>
</defs>
</svg>
